<mxfile host="Electron" agent="Mozilla/5.0 (Windows NT 10.0; Win64; x64) AppleWebKit/537.36 (KHTML, like Gecko) draw.io/24.7.17 Chrome/128.0.6613.36 Electron/32.0.1 Safari/537.36" version="24.7.17">
  <diagram name="PÃ¡gina-1" id="KjWP04nfX2RirZkwArTP">
    <mxGraphModel dx="1114" dy="1825" grid="1" gridSize="10" guides="1" tooltips="1" connect="1" arrows="1" fold="1" page="1" pageScale="1" pageWidth="827" pageHeight="1169" math="0" shadow="0">
      <root>
        <mxCell id="0" />
        <mxCell id="1" parent="0" />
        <mxCell id="0c1vMbRbjspgvuANyQEH-7" value="" style="rounded=1;whiteSpace=wrap;html=1;" parent="1" vertex="1">
          <mxGeometry x="120" y="-5" width="570" height="960" as="geometry" />
        </mxCell>
        <mxCell id="0c1vMbRbjspgvuANyQEH-2" value="Projeto Chamados" style="text;html=1;align=center;verticalAlign=middle;whiteSpace=wrap;rounded=0;" parent="1" vertex="1">
          <mxGeometry x="370" y="30" width="60" height="30" as="geometry" />
        </mxCell>
        <mxCell id="0c1vMbRbjspgvuANyQEH-3" value="Funcionario" style="shape=umlActor;verticalLabelPosition=bottom;verticalAlign=top;html=1;outlineConnect=0;" parent="1" vertex="1">
          <mxGeometry x="40" y="280" width="30" height="60" as="geometry" />
        </mxCell>
        <mxCell id="0c1vMbRbjspgvuANyQEH-5" value="Administrador&lt;div&gt;&lt;br&gt;&lt;/div&gt;" style="shape=umlActor;verticalLabelPosition=bottom;verticalAlign=top;html=1;outlineConnect=0;" parent="1" vertex="1">
          <mxGeometry x="50" y="710" width="30" height="60" as="geometry" />
        </mxCell>
        <mxCell id="0c1vMbRbjspgvuANyQEH-10" value="Fazer login&amp;nbsp;" style="ellipse;whiteSpace=wrap;html=1;" parent="1" vertex="1">
          <mxGeometry x="344" y="430" width="130" height="90" as="geometry" />
        </mxCell>
        <mxCell id="0c1vMbRbjspgvuANyQEH-11" value="abrir Chamado" style="ellipse;whiteSpace=wrap;html=1;" parent="1" vertex="1">
          <mxGeometry x="200" y="70" width="140" height="90" as="geometry" />
        </mxCell>
        <mxCell id="0c1vMbRbjspgvuANyQEH-12" value="verificar login" style="ellipse;whiteSpace=wrap;html=1;" parent="1" vertex="1">
          <mxGeometry x="520" y="360" width="120" height="80" as="geometry" />
        </mxCell>
        <mxCell id="0c1vMbRbjspgvuANyQEH-13" value="listar chamados" style="ellipse;whiteSpace=wrap;html=1;" parent="1" vertex="1">
          <mxGeometry x="430" y="180" width="140" height="100" as="geometry" />
        </mxCell>
        <mxCell id="0c1vMbRbjspgvuANyQEH-14" value="" style="endArrow=none;html=1;rounded=0;" parent="1" target="0c1vMbRbjspgvuANyQEH-11" edge="1">
          <mxGeometry width="50" height="50" relative="1" as="geometry">
            <mxPoint x="80" y="310" as="sourcePoint" />
            <mxPoint x="130" y="260" as="targetPoint" />
          </mxGeometry>
        </mxCell>
        <mxCell id="0c1vMbRbjspgvuANyQEH-15" value="" style="endArrow=none;html=1;rounded=0;entryX=0;entryY=0.5;entryDx=0;entryDy=0;" parent="1" target="0c1vMbRbjspgvuANyQEH-13" edge="1">
          <mxGeometry width="50" height="50" relative="1" as="geometry">
            <mxPoint x="80" y="310" as="sourcePoint" />
            <mxPoint x="340" y="270" as="targetPoint" />
          </mxGeometry>
        </mxCell>
        <mxCell id="0c1vMbRbjspgvuANyQEH-16" value="" style="endArrow=none;html=1;rounded=0;" parent="1" target="0c1vMbRbjspgvuANyQEH-10" edge="1">
          <mxGeometry width="50" height="50" relative="1" as="geometry">
            <mxPoint x="80" y="310" as="sourcePoint" />
            <mxPoint x="340" y="270" as="targetPoint" />
          </mxGeometry>
        </mxCell>
        <mxCell id="0c1vMbRbjspgvuANyQEH-18" value="&amp;lt;&amp;lt;incluir&amp;gt;&amp;gt;" style="text;html=1;align=center;verticalAlign=middle;whiteSpace=wrap;rounded=0;" parent="1" vertex="1">
          <mxGeometry x="480" y="420" width="20" height="10" as="geometry" />
        </mxCell>
        <mxCell id="0c1vMbRbjspgvuANyQEH-20" value="" style="endArrow=none;dashed=1;html=1;rounded=0;exitX=1;exitY=0.5;exitDx=0;exitDy=0;" parent="1" source="0c1vMbRbjspgvuANyQEH-10" target="0c1vMbRbjspgvuANyQEH-12" edge="1">
          <mxGeometry width="50" height="50" relative="1" as="geometry">
            <mxPoint x="290" y="350" as="sourcePoint" />
            <mxPoint x="340" y="300" as="targetPoint" />
            <Array as="points" />
          </mxGeometry>
        </mxCell>
        <mxCell id="0c1vMbRbjspgvuANyQEH-21" value="editar usuario" style="ellipse;whiteSpace=wrap;html=1;" parent="1" vertex="1">
          <mxGeometry x="294" y="830" width="120" height="80" as="geometry" />
        </mxCell>
        <mxCell id="0c1vMbRbjspgvuANyQEH-22" value="editar depatamento" style="ellipse;whiteSpace=wrap;html=1;" parent="1" vertex="1">
          <mxGeometry x="510" y="570" width="120" height="80" as="geometry" />
        </mxCell>
        <mxCell id="0c1vMbRbjspgvuANyQEH-23" value="fechar chamado" style="ellipse;whiteSpace=wrap;html=1;" parent="1" vertex="1">
          <mxGeometry x="440" y="720" width="120" height="80" as="geometry" />
        </mxCell>
        <mxCell id="0c1vMbRbjspgvuANyQEH-28" value="" style="endArrow=none;html=1;rounded=0;" parent="1" target="0c1vMbRbjspgvuANyQEH-22" edge="1">
          <mxGeometry width="50" height="50" relative="1" as="geometry">
            <mxPoint x="90" y="740" as="sourcePoint" />
            <mxPoint x="300" y="510" as="targetPoint" />
          </mxGeometry>
        </mxCell>
        <mxCell id="0c1vMbRbjspgvuANyQEH-29" value="" style="endArrow=none;html=1;rounded=0;" parent="1" target="0c1vMbRbjspgvuANyQEH-21" edge="1">
          <mxGeometry width="50" height="50" relative="1" as="geometry">
            <mxPoint x="90" y="740" as="sourcePoint" />
            <mxPoint x="300" y="510" as="targetPoint" />
          </mxGeometry>
        </mxCell>
        <mxCell id="0c1vMbRbjspgvuANyQEH-30" value="" style="endArrow=none;html=1;rounded=0;" parent="1" target="0c1vMbRbjspgvuANyQEH-23" edge="1">
          <mxGeometry width="50" height="50" relative="1" as="geometry">
            <mxPoint x="90" y="740" as="sourcePoint" />
            <mxPoint x="300" y="510" as="targetPoint" />
          </mxGeometry>
        </mxCell>
        <mxCell id="0c1vMbRbjspgvuANyQEH-31" value="" style="endArrow=none;html=1;rounded=0;entryX=0;entryY=0.5;entryDx=0;entryDy=0;" parent="1" target="0c1vMbRbjspgvuANyQEH-10" edge="1">
          <mxGeometry width="50" height="50" relative="1" as="geometry">
            <mxPoint x="90" y="740" as="sourcePoint" />
            <mxPoint x="215.2285728183997" y="857.4017870172497" as="targetPoint" />
          </mxGeometry>
        </mxCell>
        <mxCell id="6HhRo88mz-Je8i3O9mEa-1" value="" style="endArrow=none;html=1;rounded=0;entryX=0.107;entryY=0.81;entryDx=0;entryDy=0;entryPerimeter=0;" parent="1" target="0c1vMbRbjspgvuANyQEH-13" edge="1">
          <mxGeometry width="50" height="50" relative="1" as="geometry">
            <mxPoint x="90" y="740" as="sourcePoint" />
            <mxPoint x="310" y="470" as="targetPoint" />
          </mxGeometry>
        </mxCell>
        <mxCell id="W-j9u54DDvzlOw4kHhDh-1" value="Atendente" style="shape=umlActor;verticalLabelPosition=bottom;verticalAlign=top;html=1;outlineConnect=0;" vertex="1" parent="1">
          <mxGeometry x="30" y="480" width="30" height="60" as="geometry" />
        </mxCell>
        <mxCell id="W-j9u54DDvzlOw4kHhDh-2" value="" style="endArrow=none;html=1;rounded=0;entryX=0;entryY=0.5;entryDx=0;entryDy=0;" edge="1" parent="1" target="0c1vMbRbjspgvuANyQEH-10">
          <mxGeometry width="50" height="50" relative="1" as="geometry">
            <mxPoint x="80" y="520" as="sourcePoint" />
            <mxPoint x="430" y="530" as="targetPoint" />
          </mxGeometry>
        </mxCell>
        <mxCell id="W-j9u54DDvzlOw4kHhDh-3" value="" style="endArrow=none;html=1;rounded=0;" edge="1" parent="1">
          <mxGeometry width="50" height="50" relative="1" as="geometry">
            <mxPoint x="80" y="520" as="sourcePoint" />
            <mxPoint x="440" y="760" as="targetPoint" />
          </mxGeometry>
        </mxCell>
        <mxCell id="W-j9u54DDvzlOw4kHhDh-4" value="" style="endArrow=none;html=1;rounded=0;" edge="1" parent="1">
          <mxGeometry width="50" height="50" relative="1" as="geometry">
            <mxPoint x="80" y="520" as="sourcePoint" />
            <mxPoint x="430" y="230" as="targetPoint" />
          </mxGeometry>
        </mxCell>
      </root>
    </mxGraphModel>
  </diagram>
</mxfile>
